<svg xmlns="http://www.w3.org/2000/svg" viewBox="0 0 19.97 20.88"><defs><style>.cls-1{fill:#002f99;}</style></defs><g id="Layer_2" data-name="Layer 2"><g id="Layer_1-2" data-name="Layer 1"><path class="cls-1" d="M17.2,15.5H16.05a1.23,1.23,0,0,1-1.2-.88l-.69-5.49a5.58,5.58,0,0,0-3.45-4.6,2.09,2.09,0,0,0-4.17,0A5.58,5.58,0,0,0,3.05,9.05l-.69,5.5a1.23,1.23,0,0,1-1.21.95H0v3.2H5.88a2.78,2.78,0,0,0,5.43,0H17.2Zm-1.2,2H1.2v-.8a2.45,2.45,0,0,0,2.34-1.93l.7-5.58A4.37,4.37,0,0,1,7.33,5.52l.5-.15-.08-.52s0-.09,0-.14a.89.89,0,0,1,1.78,0,.77.77,0,0,1,0,.15l-.07.5.49.16A4.39,4.39,0,0,1,13,9.27l.7,5.57A2.44,2.44,0,0,0,16,16.7Z"/><polygon class="cls-1" points="19.97 2.45 17.52 2.45 17.52 0 15.89 0 15.89 2.45 13.44 2.45 13.44 4.08 15.89 4.08 15.89 6.53 17.52 6.53 17.52 4.08 19.97 4.08 19.97 2.45"/></g></g></svg>