<svg xmlns="http://www.w3.org/2000/svg" viewBox="0 0 16.95 16.51"><defs><style>.cls-1{fill:#002f99;}</style></defs><g id="Layer_2" data-name="Layer 2"><g id="Layer_1-2" data-name="Layer 1"><polygon class="cls-1" points="9.08 10.24 10.9 8.26 6.06 8.26 7.88 10.24 7.88 11.07 5.84 11.89 6.29 13.01 8.48 12.13 10.67 13.01 11.12 11.89 9.08 11.07 9.08 10.24"/><path class="cls-1" d="M17,2.43A2.42,2.42,0,0,0,14.53,0a2.39,2.39,0,0,0-2,1.15,3.91,3.91,0,0,0-.48,0H5a3.71,3.71,0,0,0-.48,0A2.41,2.41,0,0,0,0,2.42,2.39,2.39,0,0,0,.91,4.29a4.07,4.07,0,0,0-.13,1v7.38l6.48,3.85H9.7l6.48-3.85V5.28a4.07,4.07,0,0,0-.13-1A2.38,2.38,0,0,0,17,2.43Zm-1.66.93-.58.48.18.74a3.05,3.05,0,0,1,.09.7V12L9.37,15.31H7.59L2,12V5.28a2.68,2.68,0,0,1,.1-.7l.18-.75-.6-.47A1.21,1.21,0,1,1,3.45,1.78l.4.66.76-.09.15,0,.19,0H12l.18,0,.16,0,.75.08.4-.64a1.21,1.21,0,0,1,2.25.64A1.19,1.19,0,0,1,15.29,3.36Z"/></g></g></svg>