<svg xmlns="http://www.w3.org/2000/svg" viewBox="0 0 17.2 18.26"><defs><style>.cls-1{fill:#002f99;}</style></defs><g id="Layer_2" data-name="Layer 2"><g id="Layer_1-2" data-name="Layer 1"><path class="cls-1" d="M17.2,12.88H16.05a1.23,1.23,0,0,1-1.2-.88l-.69-5.49a5.56,5.56,0,0,0-3.45-4.6,2.09,2.09,0,0,0-4.17,0A5.58,5.58,0,0,0,3.05,6.43l-.69,5.5a1.23,1.23,0,0,1-1.21,1H0v3.2H5.88a2.78,2.78,0,0,0,5.43,0H17.2Zm-1.2,2H1.2v-.8a2.46,2.46,0,0,0,2.34-1.93l.7-5.58A4.37,4.37,0,0,1,7.33,2.9l.5-.15-.08-.52s0-.09,0-.14a.89.89,0,0,1,1.78,0,.59.59,0,0,1,0,.14l-.07.51.49.16A4.38,4.38,0,0,1,13,6.65l.7,5.56A2.44,2.44,0,0,0,16,14.08Z"/></g></g></svg>