<svg xmlns="http://www.w3.org/2000/svg" viewBox="0 0 22.87 16.37"><defs><style>.cls-1{fill:#002f99;}</style></defs><g id="Layer_2" data-name="Layer 2"><g id="Layer_1-2" data-name="Layer 1"><path class="cls-1" d="M21.67,0V.45a2.42,2.42,0,0,1-2.42,2.42H3.62A2.43,2.43,0,0,1,1.2.45V0H0V.45A3.63,3.63,0,0,0,3.62,4.07h.23L9,16.37h4.9L19,4.07h.23A3.63,3.63,0,0,0,22.87.45V0ZM13.09,15.17H9.79L8.57,12.26l.85-1.14h4.07l.88,1Zm1.79-4.29-.86-1H8.82L8,11,5.15,4.07H17.72Z"/><path class="cls-1" d="M10.41,12.73a.7.7,0,1,0,.69.69A.69.69,0,0,0,10.41,12.73Z"/><path class="cls-1" d="M12.48,12.73a.7.7,0,1,0,.7.69A.7.7,0,0,0,12.48,12.73Z"/></g></g></svg>