<svg xmlns="http://www.w3.org/2000/svg" viewBox="0 0 16 20"><defs><style>.cls-1{fill:#002f99;}</style></defs><g id="Layer_2" data-name="Layer 2"><g id="Layer_1-2" data-name="Layer 1"><polygon class="cls-1" points="8 6.88 5.11 9.77 10.89 9.77 8 6.88"/><path class="cls-1" d="M3.7,14.84c-.43,0-.64-.3-.64-.91v-.1c0-.61.21-.91.66-.91a.62.62,0,0,1,.65.55h.89a1.45,1.45,0,0,0-1.57-1.33A1.63,1.63,0,0,0,2,13.89a1.61,1.61,0,0,0,1.68,1.74,1.43,1.43,0,0,0,1.61-1.42H4.37C4.31,14.66,4.08,14.84,3.7,14.84Z"/><polygon class="cls-1" points="10.02 12.21 8.99 12.21 8.99 15.55 11.34 15.55 11.34 14.84 10.02 14.84 10.02 12.21"/><polygon class="cls-1" points="12.69 12.21 11.66 12.21 11.66 15.55 14.01 15.55 14.01 14.84 12.69 14.84 12.69 12.21"/><path class="cls-1" d="M16,5.64,10.36,0H0V20H16V5.66ZM14.8,18.8H1.2V1.2H9.86l.48.48v4h4l.49.49Z"/><path class="cls-1" d="M6.49,12.21,5.32,15.55h.83l.25-.77h1l.25.77H8.77L7.63,12.21Zm.09,2,.36-1,.33,1Z"/></g></g></svg>