<svg xmlns="http://www.w3.org/2000/svg" viewBox="0 0 17.13 16.03"><defs><style>.cls-1{fill:#002f99;}</style></defs><g id="Layer_2" data-name="Layer 2"><g id="Layer_1-2" data-name="Layer 1"><path class="cls-1" d="M17.13,3.2V8.9a3.19,3.19,0,0,1-1.41,2.65,3.11,3.11,0,0,1-1.14.48,2.81,2.81,0,0,1-.65.07H7.24L1.13,16h0l1.61-4h0l-.28,0a1.9,1.9,0,0,1-.25,0l-.28-.08-.23-.07a2,2,0,0,1-.25-.14l-.22-.11L1,11.45.8,11.29l-.17-.21a1.08,1.08,0,0,1-.16-.2,1.43,1.43,0,0,1-.12-.21,2,2,0,0,1-.14-.25l-.06-.21a2.63,2.63,0,0,1-.09-.3s0-.08,0-.12a3,3,0,0,1,0-.43V3.2a3.18,3.18,0,0,1,2.25-3A3.05,3.05,0,0,1,3.2,0H13.93a2.81,2.81,0,0,1,.65.07,3.11,3.11,0,0,1,1.14.48A3.19,3.19,0,0,1,17.13,3.2Z"/></g></g></svg>