<svg xmlns="http://www.w3.org/2000/svg" viewBox="0 0 20 14.34"><defs><style>.cls-1{fill:#002f99;}</style></defs><g id="Layer_2" data-name="Layer 2"><g id="Layer_1-2" data-name="Layer 1"><path class="cls-1" d="M16.8,0H3.2A3.2,3.2,0,0,0,0,3.2v7.94a3.2,3.2,0,0,0,3.2,3.2H16.8a3.2,3.2,0,0,0,3.2-3.2V3.2A3.2,3.2,0,0,0,16.8,0ZM3.2,1.2H16.8a2,2,0,0,1,2,2V4.4H1.2V3.2A2,2,0,0,1,3.2,1.2ZM16.8,13.14H3.2a2,2,0,0,1-2-2V6.4H18.8v4.74A2,2,0,0,1,16.8,13.14Z"/><rect class="cls-1" x="4" y="9.34" width="4" height="2"/></g></g></svg>