<svg xmlns="http://www.w3.org/2000/svg" viewBox="0 0 20.4 20.49"><defs><style>.cls-1{fill:#002f99;}</style></defs><g id="Layer_2" data-name="Layer 2"><g id="Layer_1-2" data-name="Layer 1"><path class="cls-1" d="M19.68,11.54s0-.06,0-.09V8.94h0l.71-.47-.9-2.78-.85,0a.41.41,0,0,0-.05-.09l-1.43-2L17.1,3.6l.29-.79L15,1.09l-.66.53L11.89.81h0L11.65,0H8.73L8.5.8l-.1,0L6,1.6l0,0-.64-.51L3,2.82l.28.77-.07.09-1.47,2s0,0,0,0L.9,5.7,0,8.48l.68.45a8.56,8.56,0,0,0-.1,1.32,8.79,8.79,0,0,0,.1,1.33L0,12l.9,2.77.81,0,.06.11,1.48,2,0,0L3,17.69,5.36,19.4,6,18.88l2.48.81h0l.22.8h2.92l.22-.81.11,0,2.37-.79h0l.66.53,2.36-1.72-.3-.79,1.54-2.11h0l.84,0L20.4,12Zm-1.05,2-.71,0-.23.48a.81.81,0,0,0-.06.13L16.26,16l-.54.53.25.68-.89.64-.55-.43-.35.18a1.24,1.24,0,0,1-.2.1l-2.28.77-.36.06-.39.05-.19.68H9.66l-.19-.67-.39-.06-.29,0-2.23-.71-.13-.07-.21-.1-.35-.18-.54.42-.89-.64.24-.65-.28-.27-.22-.21L2.79,14.25a2,2,0,0,0-.1-.21l-.23-.49-.69,0-.34-1L2,12.15l-.07-.39a8.13,8.13,0,0,1-.15-1.51,8.91,8.91,0,0,1,.14-1.5L2,8.36,1.42,8l.34-1,.69,0,.23-.5c0-.07.07-.14.06-.14L4.12,4.45a2.23,2.23,0,0,1,.26-.27l.29-.28-.24-.64.89-.65L5.85,3l.35-.19.21-.1L8.69,2c.12,0,.24,0,.37-.06l.39-.05.19-.68h1.1l.19.68.39.05.28,0,2.23.72.14.06.19.1.35.19.55-.44.89.64-.25.67.29.28,1.59,2.08.1.19.23.49.72,0L19,8l-.6.4.07.39c0,.1,0,.21,0,.31v2.31l-.06.35-.07.39.6.4Z"/><path class="cls-1" d="M6.52,7.22V10H7.77V5.74H6.68A2,2,0,0,1,5.3,7.09v1A2.83,2.83,0,0,0,6.52,7.22Z"/><path class="cls-1" d="M10.34,5.65c-1.28,0-2,.83-2,2.24s.72,2.19,2,2.19,2-.82,2-2.23S11.58,5.65,10.34,5.65Zm.6,2.55c0,.71-.19,1-.61,1s-.63-.26-.63-1V7.53c0-.71.19-1,.62-1s.62.27.62,1Z"/><path class="cls-1" d="M12.65,7.09v1a2.83,2.83,0,0,0,1.22-.91V10h1.25V5.74H14A2,2,0,0,1,12.65,7.09Z"/><path class="cls-1" d="M7.29,10.41c-1.28,0-2,.82-2,2.23s.72,2.2,2,2.2,2-.82,2-2.24S8.53,10.41,7.29,10.41ZM7.89,13c0,.7-.19,1-.62,1s-.62-.27-.62-1v-.68c0-.7.19-1,.62-1s.62.27.62,1Z"/><path class="cls-1" d="M9.6,11.85v1A3,3,0,0,0,10.82,12v2.77h1.25V10.5H11A2,2,0,0,1,9.6,11.85Z"/><path class="cls-1" d="M12.65,11.85v1A2.91,2.91,0,0,0,13.87,12v2.77h1.25V10.5H14A2,2,0,0,1,12.65,11.85Z"/></g></g></svg>