<svg xmlns="http://www.w3.org/2000/svg" viewBox="0 0 24.39 24.39"><defs><style>.cls-1{fill:#024bd5;}.cls-2{fill:#ffbd44;}</style></defs><g id="Layer_2" data-name="Layer 2"><g id="Layer_1-2" data-name="Layer 1"><circle id="knob" class="cls-1" cx="12.19" cy="12.19" r="12.19"/><path id="Icon_material-wb-sunny" data-name="Icon material-wb-sunny" class="cls-2" d="M8.13,7,6.73,5.64,5.64,6.73,7,8.12ZM6,11.42H3.66V13H6ZM13,3.7H11.42V6H13Zm5.78,3-1.1-1.09L16.26,7l1.1,1.09,1.39-1.39ZM16.26,17.36l1.39,1.4,1.09-1.1-1.4-1.38Zm2.14-5.94V13h2.33V11.42ZM12.19,7.54a4.66,4.66,0,1,0,4.65,4.65A4.65,4.65,0,0,0,12.19,7.54Zm-.77,13.15H13V18.4H11.42Zm-5.78-3,1.09,1.1,1.39-1.4L7,16.26l-1.38,1.4Z"/></g></g></svg>