<svg xmlns="http://www.w3.org/2000/svg" viewBox="0 0 16.36 15.98"><defs><style>.cls-1{fill:#002f99;}</style></defs><g id="Layer_2" data-name="Layer 2"><g id="Layer_1-2" data-name="Layer 1"><polygon class="cls-1" points="13.47 11.63 16.3 8.8 10.64 8.8 13.47 11.63"/><polygon class="cls-1" points="13.47 4.31 10.58 7.2 16.36 7.2 13.47 4.31"/><path class="cls-1" d="M6.89,7.39H2.6A1.27,1.27,0,0,1,1.34,6.12v-1A1.26,1.26,0,0,1,2.6,3.84H9V2.64H5.36V0H4.16V2.64H2.6A2.46,2.46,0,0,0,.14,5.09v1A2.46,2.46,0,0,0,2.6,8.58h4A1.25,1.25,0,0,1,7.88,9.83v1a1.26,1.26,0,0,1-1.25,1.26H0v1.2H4.16V16h1.2V13.32H6.63a2.46,2.46,0,0,0,2.45-2.46v-1A2.46,2.46,0,0,0,6.89,7.39Z"/></g></g></svg>