<svg xmlns="http://www.w3.org/2000/svg" viewBox="0 0 18.39 10.88"><defs><style>.cls-1{fill:#002f99;}</style></defs><g id="Layer_2" data-name="Layer 2"><g id="Layer_1-2" data-name="Layer 1"><polygon class="cls-1" points="15.5 9.09 18.33 6.26 12.67 6.26 15.5 9.09"/><polygon class="cls-1" points="15.5 1.77 12.61 4.66 18.39 4.66 15.5 1.77"/><path class="cls-1" d="M6.69,1.2a5.36,5.36,0,0,1,2.83.86l.57-1a6.52,6.52,0,0,0-3.4-1,4.53,4.53,0,0,0-4.4,3.51H0v1.2H2.16V6H0V7.2H2.25a4.53,4.53,0,0,0,4.44,3.68A5.37,5.37,0,0,0,10,9.76l-.74-.95a4.15,4.15,0,0,1-2.53.87A3.34,3.34,0,0,1,3.48,7.2h4V6H3.36V4.71H7.5V3.51h-4A3.32,3.32,0,0,1,6.69,1.2Z"/></g></g></svg>