<svg xmlns="http://www.w3.org/2000/svg" viewBox="0 0 21.62 15.85"><defs><style>.cls-1{fill:#002f99;}</style></defs><g id="Layer_2" data-name="Layer 2"><g id="Layer_1-2" data-name="Layer 1"><path class="cls-1" d="M21.25,7.52a14.06,14.06,0,0,0-6-3.53L18.43.85,17.58,0,13.93,3.65a15.08,15.08,0,0,0-3.12-.33h-.2l-.12,0A14.68,14.68,0,0,0,.37,7.52L0,7.92l.37.41A14,14,0,0,0,5.88,11.7L2.58,15l.85.85,3.76-3.76a15.17,15.17,0,0,0,3.3.42h.32A14.69,14.69,0,0,0,21.25,8.33l.37-.41Zm-10.95-3c.13,0,.25,0,.38,0a3.46,3.46,0,0,1,1.8.57L7.78,9.8A3.38,3.38,0,0,1,10.3,4.56ZM1.68,7.92A13.87,13.87,0,0,1,7,5.06a4.46,4.46,0,0,0-.1,5.58l-.09.09A14,14,0,0,1,1.68,7.92Zm9,3.4c-.13,0-.25,0-.38,0a3.37,3.37,0,0,1-1.68-.63l4.73-4.73a3.37,3.37,0,0,1,.66,2A3.42,3.42,0,0,1,10.68,11.32Zm3.37-.38a4.47,4.47,0,0,0,.14-5.85L14.3,5a13.79,13.79,0,0,1,5.64,2.95A13.82,13.82,0,0,1,14.05,10.94Z"/></g></g></svg>