<svg xmlns="http://www.w3.org/2000/svg" viewBox="0 0 21.62 9.2"><defs><style>.cls-1{fill:#002f99;}</style></defs><g id="Layer_2" data-name="Layer 2"><g id="Layer_1-2" data-name="Layer 1"><path class="cls-1" d="M21.25,4.2A14.63,14.63,0,0,0,10.81,0h-.32A14.67,14.67,0,0,0,.37,4.2L0,4.6.37,5A14.67,14.67,0,0,0,10.49,9.19h.32A14.63,14.63,0,0,0,21.25,5l.37-.4ZM10.68,8,10.3,8a3.38,3.38,0,0,1,0-6.74l.38,0a3.39,3.39,0,0,1,0,6.78ZM7,1.73A4.51,4.51,0,0,0,7,7.47,14.07,14.07,0,0,1,1.68,4.6,13.86,13.86,0,0,1,7,1.73Zm7,5.89a4.57,4.57,0,0,0,1.16-3,4.57,4.57,0,0,0-1.16-3,13.88,13.88,0,0,1,5.89,3A13.81,13.81,0,0,1,14.05,7.62Z"/></g></g></svg>