<svg xmlns="http://www.w3.org/2000/svg" viewBox="0 0 19.93 16.18"><defs><style>.cls-1{fill:#002f99;}</style></defs><g id="Layer_2" data-name="Layer 2"><g id="Layer_1-2" data-name="Layer 1"><path class="cls-1" d="M16.18,3.75V.7a.7.7,0,0,0-.7-.7H.7A.7.7,0,0,0,0,.7V13.64a2.54,2.54,0,0,0,2.54,2.54h15a2.47,2.47,0,0,0,2.35-2.46v-10ZM2.54,15A1.34,1.34,0,0,1,1.2,13.64V1.2H15V13.71a2.35,2.35,0,0,0,.09.6,1.09,1.09,0,0,0,0,.17,3,3,0,0,0,.18.41.25.25,0,0,0,0,.09Zm16.19-1.27A1.27,1.27,0,0,1,17.47,15h0a1.27,1.27,0,0,1-1.27-1.27V5h2.55Z"/><rect class="cls-1" x="2.59" y="3.13" width="3.1" height="3.1"/><rect class="cls-1" x="6.94" y="3.09" width="6.58" height="1.2"/><rect class="cls-1" x="6.94" y="4.97" width="6.58" height="1.2"/><rect class="cls-1" x="6.94" y="6.85" width="6.58" height="1.2"/></g></g></svg>