<svg xmlns="http://www.w3.org/2000/svg" viewBox="0 0 18.22 13.5"><defs><style>.cls-1{fill:#002f99;}</style></defs><g id="Layer_2" data-name="Layer 2"><g id="Layer_1-2" data-name="Layer 1"><polygon class="cls-1" points="15.33 3.07 12.45 5.96 18.22 5.96 15.33 3.07"/><polygon class="cls-1" points="15.33 10.39 18.16 7.56 12.51 7.56 15.33 10.39"/><path class="cls-1" d="M2.59,5.3A2.59,2.59,0,1,0,0,2.72,2.59,2.59,0,0,0,2.59,5.3Zm0-4A1.39,1.39,0,1,1,1.2,2.72,1.39,1.39,0,0,1,2.59,1.33Z"/><rect class="cls-1" x="-2.25" y="6.15" width="16.26" height="1.2" transform="translate(-3.06 7.18) rotate(-51.7)"/><path class="cls-1" d="M9.42,8.12a2.6,2.6,0,1,0,2.6,2.6A2.59,2.59,0,0,0,9.42,8.12Zm0,4a1.4,1.4,0,1,1,1.4-1.4A1.4,1.4,0,0,1,9.42,12.12Z"/></g></g></svg>