<svg xmlns="http://www.w3.org/2000/svg" viewBox="0 0 17.32 17.24"><defs><style>.cls-1{fill:#002f99;}</style></defs><g id="Layer_2" data-name="Layer 2"><g id="Layer_1-2" data-name="Layer 1"><path class="cls-1" d="M15.11,17.24h-.2A16.69,16.69,0,0,1,0,2.35,2.08,2.08,0,0,1,.53.76,2.17,2.17,0,0,1,2.09.05L6.58,0l1,5.15-1.35.52a.85.85,0,0,0-.53.55A.91.91,0,0,0,5.76,7a12.57,12.57,0,0,0,4.61,4.55,1,1,0,0,0,.77.08.9.9,0,0,0,.54-.52l.51-1.25L17.32,11l-.11,4.21a2.13,2.13,0,0,1-2.1,2.06Zm-9.52-16-3.48,0a1,1,0,0,0-.68.31.89.89,0,0,0-.23.67A15.47,15.47,0,0,0,15,16a.81.81,0,0,0,.66-.22.89.89,0,0,0,.32-.66l.08-3.22-3.17-.69-.13.32a2.11,2.11,0,0,1-1.26,1.19,2.14,2.14,0,0,1-1.75-.16,13.81,13.81,0,0,1-5-5,2.14,2.14,0,0,1-.18-1.78A2.11,2.11,0,0,1,5.79,4.55l.41-.16Z"/></g></g></svg>