<svg xmlns="http://www.w3.org/2000/svg" viewBox="0 0 18.96 18.66"><defs><style>.cls-1{fill:#002f99;}</style></defs><g id="Layer_2" data-name="Layer 2"><g id="Layer_1-2" data-name="Layer 1"><path class="cls-1" d="M10,.66v9L5.55,17.51A9,9,0,1,0,10,.66Zm0,16.8A7.94,7.94,0,0,1,7.23,17L11,10.25l.15-.28V2A7.8,7.8,0,0,1,10,17.46Z"/><path class="cls-1" d="M0,9.76a9,9,0,0,0,4.59,7.85L9,9.76ZM4.18,15.9A7.86,7.86,0,0,1,1.29,11H7Z"/><path class="cls-1" d="M9.18,0a9,9,0,0,0-9,9h9ZM8,7.8H1.47A7.83,7.83,0,0,1,8,1.29Z"/></g></g></svg>