<svg xmlns="http://www.w3.org/2000/svg" viewBox="0 0 19.46 14.03"><defs><style>.cls-1{fill:#002f99;}</style></defs><g id="Layer_2" data-name="Layer 2"><g id="Layer_1-2" data-name="Layer 1"><path class="cls-1" d="M19.46,1.87H12.22V1.78A1.78,1.78,0,0,0,10.44,0H9.06A1.78,1.78,0,0,0,7.28,1.78v.09H0V6.63L.52,7V14H19V7l.51-.34Zm-11-.09a.58.58,0,0,1,.58-.58h1.38a.58.58,0,0,1,.58.58v.09H8.48Zm9.78,1.29V6L16.17,7.35H12V6.61H7.48v.74H3.29L1.2,6V3.07Zm-.51,4.68v5.08h-16V7.75l1.21.8H7.48v.73H12V8.55h4.51Z"/></g></g></svg>