<svg xmlns="http://www.w3.org/2000/svg" viewBox="0 0 11.44 13.29"><defs><style>.cls-1{fill:#002f99;}</style></defs><g id="Layer_2" data-name="Layer 2"><g id="Layer_1-2" data-name="Layer 1"><path class="cls-1" d="M10.25,10.64s-.11,1-1.82,1.39A6.26,6.26,0,0,1,6,11.83a11.55,11.55,0,0,0-2.34-.31,4.47,4.47,0,0,0,1-4.41H7.87V5.91H4.08A3.17,3.17,0,0,1,3.54,4.1a2.82,2.82,0,0,1,3-2.9,2.7,2.7,0,0,1,3,2.71h1.2C10.76,1.53,9.11,0,6.56,0A4,4,0,0,0,2.35,4.1a4,4,0,0,0,.38,1.81H0v1.2H3.38l0,0c1.37,2.49-2.1,5-2.14,5l.66,1c1.19-.72,2.48-.46,3.85-.18a11.2,11.2,0,0,0,2.07.28,4,4,0,0,0,.84-.09c2.61-.57,2.75-2.41,2.75-2.49Z"/></g></g></svg>