<svg xmlns="http://www.w3.org/2000/svg" viewBox="0 0 16 20"><defs><style>.cls-1{fill:#002f99;}</style></defs><g id="Layer_2" data-name="Layer 2"><g id="Layer_1-2" data-name="Layer 1"><path class="cls-1" d="M8.06,11.63c.94,0,1.41-.44,1.41-1.37v-2H8.66v2c0,.44-.15.61-.54.61s-.56-.18-.56-.65v-2h-1v2C6.52,11.17,7,11.63,8.06,11.63Z"/><polygon class="cls-1" points="8 16.85 10.89 13.96 5.11 13.96 8 16.85"/><polygon class="cls-1" points="9.74 8.95 10.61 8.95 10.61 11.56 11.64 11.56 11.64 8.95 12.52 8.95 12.52 8.21 9.74 8.21 9.74 8.95"/><path class="cls-1" d="M16,5.66h0L10.36,0H0V20H16V5.66Zm-1.2.49V18.8H1.2V1.2H9.86l.48.48v4h4Z"/><path class="cls-1" d="M6.29,9.31c0-.75-.43-1.1-1.42-1.1H3.48v3.35h1V10.48h.26C5.82,10.48,6.29,10,6.29,9.31Zm-1.54.58H4.52V8.83h.23c.4,0,.56.15.56.48S5.2,9.87,4.75,9.89Z"/></g></g></svg>