<svg xmlns="http://www.w3.org/2000/svg" viewBox="0 0 21.29 21.45"><defs><style>.cls-1{fill:#002f99;}</style></defs><g id="Layer_2" data-name="Layer 2"><g id="Layer_1-2" data-name="Layer 1"><path class="cls-1" d="M12.69,0a8.61,8.61,0,0,0-8.6,8.6A8.51,8.51,0,0,0,5.9,13.85L0,19.75l1.7,1.7,5.92-5.92A8.59,8.59,0,1,0,12.69,0Zm0,16a7.4,7.4,0,1,1,7.4-7.4A7.41,7.41,0,0,1,12.69,16Z"/><polygon class="cls-1" points="13.17 8.76 11.29 6.87 8.13 10.04 9.26 11.17 11.29 9.13 13.17 11.02 16.82 7.37 15.69 6.24 13.17 8.76"/></g></g></svg>