<svg xmlns="http://www.w3.org/2000/svg" viewBox="0 0 17.46 17.44"><defs><style>.cls-1{fill:#002f99;}</style></defs><g id="Layer_2" data-name="Layer 2"><g id="Layer_1-2" data-name="Layer 1"><path class="cls-1" d="M10.58,17.44,8.73,15.66,6.88,17.44l-.32-.08a8.92,8.92,0,0,1-2.45-1l-.28-.17-.05-2.55-2.52,0-.18-.28a8.73,8.73,0,0,1-1-2.5L0,10.47,1.73,8.66,0,6.89.1,6.56A8.93,8.93,0,0,1,1.18,4l.17-.28,2.43,0L3.83,1.3l.28-.17a8.71,8.71,0,0,1,2.57-1L7,0,8.73,1.67,10.46,0l.32.08a8.6,8.6,0,0,1,2.57,1l.28.17,0,2.42,2.44,0,.17.28a9.2,9.2,0,0,1,1.07,2.52l.08.33L15.73,8.66l1.73,1.81-.07.31a9.05,9.05,0,0,1-1,2.5l-.17.28-2.53,0,0,2.55-.28.17a8.67,8.67,0,0,1-2.45,1ZM5,15.47a7.53,7.53,0,0,0,1.52.64L8.73,14l2.2,2.11a7.69,7.69,0,0,0,1.51-.64l.06-3,3,0a7.5,7.5,0,0,0,.63-1.56L14.06,8.66l2-2.12A7.47,7.47,0,0,0,15.43,5L12.5,4.89,12.45,2a8.23,8.23,0,0,0-1.63-.67l-2.09,2-2.08-2A7.76,7.76,0,0,0,5,2L5,4.89,2,5a7.44,7.44,0,0,0-.67,1.59l2,2.12L1.32,10.82A8.78,8.78,0,0,0,2,12.38l3,0Zm3.71-3a3.84,3.84,0,1,1,3.84-3.84A3.84,3.84,0,0,1,8.73,12.51ZM8.73,6a2.64,2.64,0,1,0,2.64,2.64A2.64,2.64,0,0,0,8.73,6Z"/></g></g></svg>