<svg xmlns="http://www.w3.org/2000/svg" viewBox="0 0 20.09 15.67"><defs><style>.cls-1{fill:#002f99;}</style></defs><g id="Layer_2" data-name="Layer 2"><g id="Layer_1-2" data-name="Layer 1"><polygon class="cls-1" points="14.47 14.47 1.2 14.47 1.2 1.2 12.15 1.2 12.15 0 0 0 0 15.67 15.67 15.67 15.67 9.75 14.47 9.75 14.47 14.47"/><path class="cls-1" d="M20.09,4.06l-4-4v2l-.79.1c-.3.05-.61.07-.91.14a11.64,11.64,0,0,0-1.75.49A11.3,11.3,0,0,0,9.56,4.54,10.93,10.93,0,0,0,7.25,7a29.93,29.93,0,0,0-1.5,2.82l.67.45a28.19,28.19,0,0,1,2-2.23,9,9,0,0,1,2.36-1.5,8.53,8.53,0,0,1,2.58-.66,8.06,8.06,0,0,1,1.3,0,4.5,4.5,0,0,1,.63.07l.76.09v2Z"/></g></g></svg>