<svg xmlns="http://www.w3.org/2000/svg" viewBox="0 0 18 18"><defs><style>.cls-1{fill:#002f99;}</style></defs><g id="Layer_2" data-name="Layer 2"><g id="Layer_1-2" data-name="Layer 1"><path class="cls-1" d="M9,0a9,9,0,1,0,9,9A9,9,0,0,0,9,0ZM9,16.8A7.8,7.8,0,1,1,16.8,9,7.81,7.81,0,0,1,9,16.8Z"/><path class="cls-1" d="M9,3.75A5.25,5.25,0,1,0,14.25,9,5.25,5.25,0,0,0,9,3.75Zm0,9.3A4.05,4.05,0,1,1,13.05,9,4.06,4.06,0,0,1,9,13.05Z"/><path class="cls-1" d="M9,7.68a1.49,1.49,0,1,0,1.48,1.49A1.49,1.49,0,0,0,9,7.68Z"/></g></g></svg>