<svg xmlns="http://www.w3.org/2000/svg" viewBox="0 0 20 18.62"><defs><style>.cls-1{fill:#002f99;}</style></defs><g id="Layer_2" data-name="Layer 2"><g id="Layer_1-2" data-name="Layer 1"><path class="cls-1" d="M14,8c-1.28,1.65-2.39,3.08-4,3.08-1.84,0-3.16-1.09-4.56-2.25S2.34,6.25,0,6.25v1.5c1.56,0,2.73,1,4.08,2.08,1.55,1.29,3.31,2.75,5.93,2.75s4.31-2.08,5.73-3.91S18.22,5.48,20,5.48V4C17.17,4,15.5,6.12,14,8Z"/><path class="cls-1" d="M14.8,1.2h2.4V3.42A6.58,6.58,0,0,1,18.4,3V0H13.6V6.62c.37-.47.77-.94,1.2-1.39Z"/><path class="cls-1" d="M5.2,15.2H2.8V10.34a10.39,10.39,0,0,0-1.2-.88V16.4H6.4V12.9a10.17,10.17,0,0,1-1.2-.7Z"/><path class="cls-1" d="M8.8,5.2h2.4V9.39a9.14,9.14,0,0,0,1.2-1.25V4H7.6V9a5.86,5.86,0,0,0,1.2.65Z"/><path class="cls-1" d="M17.2,13.2H14.8V11.62a9.72,9.72,0,0,1-1.2,1V14.4h4.8v-7a10.44,10.44,0,0,0-1.2,1.34Z"/><path class="cls-1" d="M11.2,17.42H8.8V13.68a8.77,8.77,0,0,1-1.2-.29v5.23h4.8V13.29a5.78,5.78,0,0,1-1.2.37Z"/><path class="cls-1" d="M2.8,3.2H5.2V7.09c.36.27.7.55,1,.81l.18.15V2H1.6V5.25a7.64,7.64,0,0,1,1.2.38Z"/></g></g></svg>