<svg xmlns="http://www.w3.org/2000/svg" viewBox="0 0 21.06 21.89"><defs><style>.cls-1{fill:#002f99;}</style></defs><g id="Layer_2" data-name="Layer 2"><g id="Layer_1-2" data-name="Layer 1"><rect class="cls-1" x="6.88" y="18.56" width="7.35" height="1.2"/><rect class="cls-1" x="8.07" y="20.69" width="4.95" height="1.2"/><rect class="cls-1" x="15.75" y="3.26" width="2.64" height="1.6" transform="translate(2.13 13.26) rotate(-45)"/><rect class="cls-1" x="18.42" y="9.81" width="2.64" height="1.6"/><rect class="cls-1" x="16.73" y="16.34" width="1.6" height="2.64" transform="translate(-7.35 17.57) rotate(-45)"/><rect class="cls-1" x="9.75" width="1.6" height="2.64"/><rect class="cls-1" x="3.23" y="2.7" width="1.6" height="2.64" transform="translate(-1.66 4.02) rotate(-45)"/><rect class="cls-1" y="9.74" width="2.64" height="1.6"/><rect class="cls-1" x="2.17" y="16.79" width="2.64" height="1.6" transform="translate(-11.41 7.62) rotate(-44.99)"/><path class="cls-1" d="M17.57,10.59A7,7,0,1,0,4,13.06l1.88,4.56h9.37L17.1,13.1A7,7,0,0,0,17.57,10.59ZM16,12.64l-1.57,3.78H6.67L5.1,12.63a5.82,5.82,0,1,1,10.9,0Z"/><path class="cls-1" d="M11.44,9.93l-.37-.1c-.78-.2-1.29-.33-1.29-.67s.17-.37.43-.43a1.42,1.42,0,0,1,.31,0l.27,0,.17,0,.24.08a1,1,0,0,1,.16.06,1.91,1.91,0,0,1,.27.16l.14.08a3.19,3.19,0,0,1,.38.36h0l.27-.26.8-.76a3,3,0,0,0-.93-.7,3.46,3.46,0,0,0-1.12-.33V6.67H10.12v.74C8.89,7.53,8,8.24,8,9.38a1.75,1.75,0,0,0,1.37,1.67l.71.24.53.16c.46.15.76.28.76.56a.38.38,0,0,1,0,.19.4.4,0,0,1-.14.15.93.93,0,0,1-.5.14l-.29,0-.18,0a1.34,1.34,0,0,1-.26-.09,1.27,1.27,0,0,1-.18-.06,2.2,2.2,0,0,1-.28-.18A.67.67,0,0,1,9.35,12,2.4,2.4,0,0,1,9,11.63l-1.14,1a3,3,0,0,0,1.3.92,3.51,3.51,0,0,0,1,.25v.85h1.06V13.8c1.18-.14,2.1-.78,2.1-2S12.3,10.17,11.44,9.93Z"/></g></g></svg>